<svg xmlns="http://www.w3.org/2000/svg" width="2931" height="915" viewBox="0 0 2931 915" version="1.1"><path d="M 1749 64.587 C 1724.346 67.321, 1718.261 68.832, 1679 81.977 C 1637.879 95.745, 1616.398 100.761, 1581.666 104.707 C 1560.044 107.164, 1496.638 107.144, 1468.131 104.671 C 1456.929 103.699, 1447.600 103.067, 1447.400 103.266 C 1447.201 103.466, 1465.817 109.635, 1488.769 116.977 C 1511.721 124.318, 1530.833 130.607, 1531.240 130.952 C 1531.647 131.298, 1499.472 137.374, 1459.740 144.455 C 1420.008 151.536, 1386.628 157.634, 1385.562 158.006 C 1383.926 158.578, 1497.552 181.773, 1503.605 182.103 C 1506.151 182.242, 1504.370 182.664, 1459.905 192.453 C 1105.872 270.389, 754.035 402.921, 429 580.782 C 294.199 654.545, 160.428 738.960, 51.500 819 C 22.431 840.359, 0.125 857.373, 0.559 857.856 C 0.734 858.051, 12.043 852.305, 25.689 845.087 C 376.309 659.617, 801.500 515.917, 1230 438.071 C 1416.143 404.255, 1585.946 385.807, 1746.500 381.957 C 1787.474 380.974, 1864.209 381.875, 1865.690 383.357 C 1866.474 384.141, 1851.321 396.598, 1831.500 411.462 C 1804.369 431.809, 1775.232 452.677, 1721.500 490.243 C 1695.650 508.316, 1673.375 524.005, 1672 525.108 C 1669.929 526.769, 1669.843 527.011, 1671.500 526.518 C 1675.987 525.181, 2043.979 375.459, 2043.989 374.966 C 2043.995 374.672, 2042.088 373.694, 2039.750 372.794 C 2037.412 371.893, 2027.625 367.946, 2018 364.024 C 1959.152 340.041, 1877.546 314.740, 1819.250 302.405 C 1814.713 301.445, 1811.004 300.399, 1811.010 300.080 C 1811.015 299.761, 1841.503 282.727, 1878.760 262.228 C 1916.017 241.728, 1947.135 224.556, 1947.911 224.069 C 1948.993 223.390, 1945.416 218.961, 1932.585 205.092 C 1923.379 195.141, 1916.154 187, 1916.528 187 C 1916.902 187, 1931.224 196.831, 1948.354 208.847 C 1965.484 220.862, 1984.900 234.275, 1991.500 238.652 L 2003.500 246.611 2059.500 257.411 C 2160.967 276.980, 2215.538 287.939, 2229.618 291.574 C 2250.741 297.027, 2257.565 295.700, 2261.275 285.419 C 2263.441 279.416, 2263.069 265.008, 2260.418 252.216 C 2258.879 244.787, 2258.330 243.643, 2255.101 241.138 C 2253.120 239.601, 2211.225 210.213, 2162 175.830 L 2072.500 113.316 2043.500 110.744 C 2020.435 108.699, 2013.379 107.730, 2009.023 106.011 C 1991.544 99.115, 1942.100 85.377, 1919 81 C 1904.173 78.190, 1875.670 76.976, 1878 79.254 C 1878.825 80.060, 1886.025 86.024, 1894 92.507 C 1901.975 98.989, 1908.934 104.684, 1909.465 105.162 C 1909.996 105.640, 1906.171 104.205, 1900.965 101.974 C 1861.234 84.946, 1816.194 70.978, 1786.812 66.574 C 1776.952 65.096, 1754.875 63.936, 1749 64.587 M 2200.500 702.989 L 2266.500 703.500 2266.804 706.123 C 2266.971 707.566, 2266.184 710.392, 2265.054 712.404 C 2263.924 714.415, 2263 716.921, 2263 717.971 C 2263 719.022, 2262.550 720.160, 2262 720.500 C 2261.450 720.840, 2261 721.978, 2261 723.029 C 2261 724.079, 2260.100 726.542, 2259 728.500 C 2257.900 730.458, 2257 732.708, 2257 733.500 C 2257 734.292, 2256.100 736.542, 2255 738.500 C 2253.900 740.458, 2253 742.708, 2253 743.500 C 2253 744.292, 2252.100 746.542, 2251 748.500 C 2249.900 750.458, 2249 752.708, 2249 753.500 C 2249 754.292, 2248.100 756.542, 2247 758.500 C 2245.900 760.458, 2245 762.708, 2245 763.500 C 2245 764.292, 2244.100 766.542, 2243 768.500 C 2241.900 770.458, 2241 772.728, 2241 773.544 C 2241 777.461, 2232.746 787, 2229.356 787 C 2228.125 787, 2226.840 787.450, 2226.500 788 C 2224.336 791.501, 2236.214 785.849, 2238.567 782.258 C 2240.546 779.236, 2270 705.235, 2270 703.282 C 2270 702.250, 2256.807 702.047, 2202.250 702.239 L 2134.500 702.478 2200.500 702.989 M 2128.021 704.116 C 2124.537 705.506, 2122.073 707.933, 2120.019 712 C 2116.152 719.656, 2092 782.090, 2092 784.430 C 2092 785.878, 2092.814 787.365, 2093.934 787.965 C 2097.614 789.934, 2098.363 788.988, 2095.494 785.993 C 2093.262 783.664, 2092.882 782.718, 2093.807 781.793 C 2094.463 781.137, 2095 779.804, 2095 778.830 C 2095 777.857, 2095.900 775.458, 2097 773.500 C 2098.100 771.542, 2099 769.292, 2099 768.500 C 2099 767.708, 2099.900 765.458, 2101 763.500 C 2102.100 761.542, 2103 759.292, 2103 758.500 C 2103 757.708, 2103.900 755.458, 2105 753.500 C 2106.100 751.542, 2107 749.292, 2107 748.500 C 2107 747.708, 2107.900 745.458, 2109 743.500 C 2110.100 741.542, 2111 739.292, 2111 738.500 C 2111 737.708, 2111.900 735.458, 2113 733.500 C 2114.100 731.542, 2115 729.079, 2115 728.029 C 2115 726.978, 2115.450 725.840, 2116 725.500 C 2116.550 725.160, 2117 724.085, 2117 723.110 C 2117 718.475, 2126.403 705, 2129.637 705 C 2130.322 705, 2131.160 704.550, 2131.500 704 C 2132.253 702.781, 2131.286 702.813, 2128.021 704.116 M 2196.750 789.744 C 2201.287 789.929, 2208.713 789.929, 2213.250 789.744 C 2217.787 789.559, 2214.075 789.407, 2205 789.407 C 2195.925 789.407, 2192.213 789.559, 2196.750 789.744" stroke="none" fill="#e41c24" fill-rule="evenodd"/><path d="M 2307.854 607.271 L 2293.208 644.500 2219.854 644.563 C 2179.509 644.598, 2142.675 644.969, 2138 645.388 C 2091.667 649.538, 2058.093 669.417, 2041.125 702.746 C 2036.552 711.728, 2007.152 787.863, 2005.617 794.697 C 1998.954 824.363, 2013.629 841.703, 2051.323 848.703 C 2062.140 850.712, 2195.760 851.795, 2216.903 850.046 C 2245.403 847.688, 2268.604 840.512, 2286 828.676 C 2297.083 821.135, 2309.110 807.535, 2315.936 794.824 C 2318.099 790.796, 2338.389 740.700, 2361.024 683.500 C 2383.660 626.300, 2403.033 577.362, 2404.076 574.750 L 2405.971 570 2364.235 570.021 L 2322.500 570.042 2307.854 607.271 M 931 575.679 C 881.917 580.710, 850.201 599.655, 833.391 633.985 C 827.438 646.142, 810.157 691.466, 808.983 698 C 806.339 712.714, 811.348 725.060, 823.161 732.949 C 830.310 737.722, 836.876 740.250, 849.712 743.170 L 859.500 745.396 1005 745.948 C 1085.025 746.252, 1151.287 746.886, 1152.250 747.357 C 1154.757 748.585, 1154.438 750.067, 1148.671 763.952 C 1144.197 774.726, 1143.028 776.681, 1140 778.452 C 1136.509 780.495, 1136.057 780.500, 960.681 780.500 L 784.862 780.500 771.436 814.422 C 764.052 833.079, 758.120 848.439, 758.255 848.557 C 758.390 848.674, 840.400 848.928, 940.500 849.121 C 1111.415 849.451, 1123.170 849.364, 1133.500 847.687 C 1172.984 841.279, 1198.231 826.767, 1214.996 800.841 C 1219.448 793.957, 1223.377 785.453, 1231.021 766.154 C 1236.590 752.091, 1241.857 737.867, 1242.725 734.543 C 1244.605 727.340, 1244.817 715.126, 1243.163 709.343 C 1240.212 699.032, 1230.935 690.087, 1218 685.081 C 1201.505 678.696, 1202.992 678.801, 1117 677.974 C 1073.825 677.560, 1008.575 677.165, 972 677.096 C 935.425 677.028, 904.487 676.701, 903.250 676.370 C 900.025 675.505, 900.392 673.153, 905.787 660.088 C 909.117 652.024, 911.328 648.064, 913.323 646.588 L 916.146 644.500 1092.943 644.239 L 1269.739 643.978 1281.316 614.739 C 1287.683 598.658, 1293.810 583.138, 1294.932 580.250 L 1296.971 575 1115.735 575.160 C 1016.056 575.248, 932.925 575.482, 931 575.679 M 1356.435 612.770 L 1344.369 643.500 1324.935 643.786 L 1305.500 644.073 1294.799 671.286 C 1288.913 686.254, 1283.802 699.288, 1283.442 700.250 C 1282.831 701.879, 1284.118 702, 1302 702 C 1316.971 702, 1321.104 702.276, 1320.714 703.250 C 1311.763 725.623, 1263 849.232, 1263 849.549 C 1263 849.797, 1280.888 849.993, 1302.750 849.984 L 1342.500 849.969 1371.621 776.234 L 1400.742 702.500 1421.924 702 L 1443.106 701.500 1454.380 673 L 1465.654 644.500 1444.728 644.230 C 1428.648 644.022, 1423.918 643.675, 1424.304 642.730 C 1428.588 632.249, 1448 582.944, 1448 582.545 C 1448 582.245, 1430.112 582.009, 1408.250 582.020 L 1368.500 582.041 1356.435 612.770 M 1568.500 644.656 C 1542.047 647.802, 1525.463 652.536, 1509.368 661.537 C 1494.249 669.991, 1480.057 684.631, 1472.040 700.040 C 1469.153 705.588, 1431.037 800.426, 1412.267 848.761 C 1411.877 849.766, 1420.251 849.969, 1453.498 849.761 L 1495.219 849.500 1522.685 780 C 1537.873 741.569, 1551.124 709.452, 1552.326 708.155 C 1557.721 702.336, 1555.708 702.525, 1615.579 702.211 L 1670.659 701.921 1681.829 673.623 C 1687.973 658.059, 1693 645.027, 1693 644.662 C 1693 643.996, 1574.102 643.990, 1568.500 644.656 M 1720.069 646.250 C 1719.584 647.487, 1708.318 675.934, 1695.032 709.463 C 1681.747 742.993, 1670.236 773.143, 1669.453 776.463 C 1665.229 794.375, 1670.811 807.921, 1685.303 814.920 C 1697.328 820.727, 1698.552 820.803, 1792.750 821.583 C 1840.188 821.976, 1879 822.673, 1879 823.133 C 1879 823.592, 1877.221 828.095, 1875.046 833.139 C 1870.520 843.637, 1866.877 847.898, 1859.618 851.184 L 1854.500 853.500 1752.362 853.142 L 1650.225 852.784 1638.112 883.421 C 1631.451 900.271, 1626 914.284, 1626 914.560 C 1626 914.837, 1678.088 914.926, 1741.750 914.759 C 1870.612 914.419, 1864.275 914.739, 1887 907.425 C 1912.891 899.093, 1931.927 884.696, 1944.455 863.973 C 1948.027 858.063, 1960.532 827.611, 1991.167 750.222 C 2014.175 692.097, 2033 644.414, 2033 644.260 C 2033 644.105, 2014.273 644.095, 1991.385 644.239 L 1949.770 644.500 1927.025 702 L 1904.281 759.500 1834.294 759.500 C 1759.965 759.500, 1761 759.565, 1761 754.903 C 1761 753.569, 1791.304 675.760, 1803.706 645.250 C 1804.108 644.262, 1795.492 644, 1762.582 644 L 1720.950 644 1720.069 646.250 M 2502.500 645.111 C 2466.455 645.778, 2458.395 646.708, 2441 652.208 C 2415.899 660.145, 2397.547 674.689, 2387.634 694.500 C 2382.697 704.366, 2348.493 791.451, 2347.179 797.500 C 2344.365 810.452, 2344.891 818.059, 2349.198 826.682 C 2354.045 836.388, 2366.852 844.296, 2384.128 848.252 C 2393.360 850.366, 2395.163 850.403, 2504.500 850.725 L 2615.500 851.053 2627.250 821.190 C 2633.713 804.766, 2639 790.804, 2639 790.164 C 2639 789.287, 2614.548 788.997, 2539.750 788.986 C 2485.162 788.979, 2439.502 788.705, 2438.283 788.378 C 2434.872 787.464, 2434.713 784.888, 2437.589 777.129 L 2440.232 770 2520.366 769.994 C 2604.209 769.988, 2610.703 769.706, 2625 765.444 C 2633.343 762.958, 2644.996 756.539, 2651.189 751.020 C 2660.346 742.858, 2665.168 734.632, 2674.362 711.493 C 2684.147 686.865, 2685.422 682.142, 2684.765 672.964 C 2683.673 657.695, 2672.918 649.003, 2651.500 646.079 C 2642.116 644.798, 2551.303 644.208, 2502.500 645.111 M 2805.500 646.109 C 2762.117 650.151, 2730.246 667.561, 2712.636 696.836 C 2709.216 702.523, 2699.229 726.519, 2678.978 777.711 L 2650.183 850.500 2691.280 850.761 C 2713.884 850.905, 2732.709 850.680, 2733.113 850.261 C 2733.518 849.843, 2745.994 818.767, 2760.839 781.205 C 2775.683 743.643, 2788.577 711.768, 2789.492 710.371 C 2790.407 708.975, 2793.033 706.980, 2795.328 705.938 C 2799.256 704.155, 2802.683 704.042, 2854 704.016 L 2908.500 703.988 2919.774 675.244 C 2925.975 659.435, 2931.037 646.163, 2931.024 645.750 C 2930.991 644.731, 2816.786 645.057, 2805.500 646.109 M 2130.749 703.413 C 2125.250 704.892, 2122.496 707.097, 2120.019 712 C 2116.152 719.656, 2092 782.090, 2092 784.430 C 2092 785.805, 2092.787 787.348, 2093.750 787.859 C 2094.756 788.393, 2123.554 788.939, 2161.500 789.144 L 2227.500 789.500 2232.167 787.201 C 2234.734 785.936, 2237.614 783.712, 2238.567 782.258 C 2240.546 779.236, 2270 705.235, 2270 703.282 C 2270 701.417, 2137.707 701.541, 2130.749 703.413 M 2471.500 704.417 C 2466.974 706.438, 2463.311 710.890, 2460.516 717.768 C 2459.132 721.174, 2458 724.194, 2458 724.480 C 2458 724.766, 2485.338 724.998, 2518.750 724.996 C 2576.795 724.993, 2579.640 724.907, 2582.634 723.081 C 2586.423 720.771, 2590.317 715.715, 2591.862 711.101 C 2593.324 706.735, 2593.305 706.447, 2591.429 704.571 C 2590.035 703.178, 2583.314 703.004, 2532.179 703.039 C 2486.216 703.070, 2473.891 703.350, 2471.500 704.417" stroke="none" fill="#1c1c1c" fill-rule="evenodd"/></svg>